<svg width="93" height="18" viewBox="0 0 93 18" fill="none" xmlns="http://www.w3.org/2000/svg">
<path fill-rule="evenodd" clip-rule="evenodd" d="M21.6975 8.92676H24.8379C26.1732 8.92676 27.7434 8.55255 27.7434 6.76909C27.7434 5.86101 27.2305 5.32712 26.2374 5.12431V5.10274C27.0702 4.82469 27.551 4.30129 27.551 3.3618C27.551 2.07949 26.5148 1.47104 25.1265 1.47104H21.6975V8.92676ZM23.6845 5.76481H24.2929C24.9766 5.76481 25.7565 5.83942 25.7565 6.65133C25.7565 7.41025 24.9982 7.51689 24.272 7.51689H23.6845V5.76481ZM23.6845 2.88095H24.2609C24.923 2.88095 25.5641 2.94507 25.5641 3.62875C25.5641 4.25878 24.891 4.41903 24.24 4.41903H23.6845V2.88095Z" fill="#1A171B"/>
<path d="M34.4706 3.36147H32.5484V5.71149C32.5484 6.9081 32.1421 7.45243 31.3518 7.45243C30.8284 7.45243 30.4653 7.09981 30.4653 6.05303V3.36147H28.5425V6.83285C28.5425 7.98628 29.1516 9.05469 30.6681 9.05469C31.5441 9.05469 32.3129 8.70271 32.6976 7.90126H32.7192V8.92643H34.4706V3.36147Z" fill="#1A171B"/>
<path d="M35.5075 8.92676H40.2926V7.51689H37.7077L40.2501 4.89993V3.3618H35.5612V4.77167H38.0499L35.5075 7.38863V8.92676Z" fill="#1A171B"/>
<path d="M41.1697 8.92676H45.9548V7.51689H43.37L45.9123 4.89993V3.3618H41.2234V4.77167H43.7121L41.1697 7.38863V8.92676Z" fill="#1A171B"/>
<path fill-rule="evenodd" clip-rule="evenodd" d="M47.1073 8.92664H49.0302V3.36168H47.1073V8.92664ZM49.0302 1.04369H47.1073V2.4536H49.0302V1.04369Z" fill="#1A171B"/>
<path d="M60.2377 1.47075H58.2508V5.76452C58.2508 6.74719 57.9839 7.58069 56.9691 7.58069C55.9544 7.58069 55.6875 6.74719 55.6875 5.76452V1.47075H53.7006V6.09619C53.7006 8.13611 55.0254 9.05469 56.9691 9.05469C58.9129 9.05469 60.2377 8.13611 60.2377 6.09619V1.47075Z" fill="#1A171B"/>
<path d="M61.2299 8.92676H63.1527V6.57674C63.1527 5.38014 63.5583 4.8358 64.3487 4.8358C64.8721 4.8358 65.2351 5.18777 65.2351 6.2352V8.92676H67.158V5.45538C67.158 4.3013 66.5489 3.23358 65.0324 3.23358C64.1563 3.23358 63.3876 3.58622 63.0029 4.38701H62.9813V3.3618H61.2299V8.92676Z" fill="#1A171B"/>
<path fill-rule="evenodd" clip-rule="evenodd" d="M68.3402 8.92664H70.2631V3.36168H68.3402V8.92664ZM70.2631 1.04369H68.3402V2.4536H70.2631V1.04369Z" fill="#1A171B"/>
<path d="M76.0208 3.54336C75.5824 3.32943 75.0701 3.23325 74.4931 3.23325C72.6559 3.23325 71.2566 4.30163 71.2566 6.14986C71.2566 7.98697 72.6559 9.05469 74.4931 9.05469C75.006 9.05469 75.5824 8.96964 76.0632 8.80935L76.0208 7.37788C75.7002 7.54863 75.2625 7.64482 74.8242 7.64482C73.9913 7.64482 73.2435 7.06842 73.2435 6.18193C73.2435 5.22019 73.8846 4.6438 74.7175 4.6438C75.1767 4.6438 75.5294 4.73933 75.8814 4.95327L76.0208 3.54336Z" fill="#1A171B"/>
<path fill-rule="evenodd" clip-rule="evenodd" d="M82.547 6.70504V6.3524C82.547 4.69652 81.7993 3.23362 79.7378 3.23362C78.0073 3.23362 76.7583 4.30133 76.7583 6.13909C76.7583 7.97619 78.1571 9.05505 79.9942 9.05505C80.7099 9.05505 81.4145 8.94841 82.0341 8.70242V7.34618C81.4577 7.65563 80.8591 7.77273 80.3363 7.77273C79.3962 7.77273 78.8087 7.47442 78.7021 6.70504H82.547ZM78.6805 5.6157C78.723 4.97455 79.0547 4.45118 79.7489 4.45118C80.5176 4.45118 80.8166 4.97455 80.8166 5.6157H78.6805Z" fill="#1A171B"/>
<path d="M83.5155 8.92676H85.4383V6.57674C85.4383 5.38014 85.8439 4.8358 86.5276 4.8358C87.0726 4.8358 87.2963 5.30555 87.2963 5.93624V8.92676H89.2191V6.57674C89.2191 5.38014 89.6254 4.8358 90.3085 4.8358C90.8535 4.8358 91.0779 5.30555 91.0779 5.93624V8.92676H93V5.64705C93 4.14164 92.6375 3.23358 91.0353 3.23358C90.245 3.23358 89.5077 3.55348 89.0588 4.30128C88.7599 3.57507 88.1082 3.23358 87.3179 3.23358C86.4419 3.23358 85.6732 3.58622 85.2885 4.38701H85.2676V3.3618H83.5155V8.92676Z" fill="#1A171B"/>
<path d="M2.70721 5.70077H0V2.56174C0 2.56174 1.70951 2.66904 3.19006 1.87675C3.6441 1.63338 4.31864 1.14856 4.47043 0.000366211H16.6844V10.5565C16.6844 15.5909 16.0125 17.04 9.72591 17.04C3.3137 17.04 2.70593 15.5922 2.70593 10.5605L2.70721 5.70077Z" fill="#0071B9"/>
<path d="M7.6882 -0.000120163H11.7007V13.0271H7.6882V-0.000120163Z" fill="#1A171B"/>
<path d="M10.9686 0.328609H8.42487V1.30737H10.9686V0.328609Z" fill="white"/>
<path d="M8.42487 6.91167V8.0494H10.1651V8.33268H8.42487V9.51489H10.0402C10.8305 9.51489 11.0045 9.40825 11.0045 8.20837C11.0045 7.01831 10.8305 6.91167 10.0402 6.91167H8.42487Z" fill="white"/>
<path fill-rule="evenodd" clip-rule="evenodd" d="M10.9633 12.3706V10.4321C10.9633 9.86878 10.6362 9.70066 10.3019 9.70066C9.79028 9.70066 9.74384 10.0193 9.71178 10.3471H9.7046C9.68301 10.0278 9.49458 9.71767 9.06082 9.71767C8.67351 9.71767 8.42487 9.88579 8.42487 10.3981V12.3706H10.9633ZM10.0035 11.3428V10.9248C10.0035 10.7684 10.0814 10.7285 10.188 10.7285C10.2946 10.7285 10.3732 10.7684 10.3732 10.9274V11.3428H10.0035ZM9.08957 11.3428V10.9359C9.08957 10.7939 9.14646 10.7455 9.27469 10.7455C9.38133 10.7455 9.45598 10.7939 9.45598 10.9503V11.3428H9.08957Z" fill="white"/>
<path d="M10.964 3.96588V1.47719H10.1246V2.42712L9.20018 1.47719H8.42487V3.97571H9.33882V2.98125L10.3948 3.96588H10.964Z" fill="white"/>
<path d="M10.964 6.68501V4.19627H10.1246V5.14624L9.20018 4.19627H8.42487V6.69415H9.33882V5.70037L10.3948 6.68501H10.964Z" fill="white"/>
</svg>
