<svg width="85" height="24" viewBox="0 0 85 24" fill="none" xmlns="http://www.w3.org/2000/svg">
<path d="M30.3377 0.403054L38.8342 0.401367L38.7814 0.470457L19.4658 23.4257L11.12 23.4403L30.3377 0.403002V0.403054ZM50.4497 18.8691V14.3557L55.4885 14.3637L60.5273 14.3717L60.7292 14.4393C61.1642 14.5851 61.5061 14.8664 61.7016 15.2394C61.9092 15.6354 61.897 15.3631 61.897 19.5823V23.3824H60.758H59.619V20.171C59.619 16.7155 59.6244 16.8451 59.4736 16.6334C59.4405 16.5869 59.3526 16.5132 59.2784 16.4695L59.1433 16.3901L58.199 16.3814L57.2546 16.3728V19.8776V23.3825H56.1449H55.0351L55.0275 20.1147L55.02 16.8469L54.9327 16.7058C54.8787 16.6184 54.7918 16.5314 54.7044 16.4774L54.5633 16.3901L53.6455 16.3814L52.7277 16.3727V19.8776V23.3825H51.5887H50.4497V18.8691L50.4497 18.8691ZM30.6802 23.1524C30.0096 22.9766 29.5003 22.4835 29.2948 21.811C29.2451 21.6482 29.242 21.4692 29.242 18.7834V15.9287L29.3234 15.6984C29.4375 15.3755 29.5783 15.1548 29.8244 14.9134C29.9796 14.7611 30.0999 14.6743 30.2735 14.5893C30.7502 14.3559 30.3918 14.3741 34.7133 14.3642L38.5699 14.3553V15.351V16.3468H35.2054C31.8484 16.3468 31.8406 16.347 31.716 16.4073C31.6293 16.4492 31.567 16.5087 31.5123 16.6019L31.4334 16.7361V18.841C31.4334 20.9198 31.4342 20.9474 31.4936 21.0613C31.5267 21.1247 31.609 21.2155 31.6763 21.2631L31.7988 21.3496L35.1843 21.3573L38.5699 21.365V22.2872V23.2094L34.7277 23.2077C31.0725 23.2061 30.8755 23.2035 30.6802 23.1523V23.1523V23.1524ZM40.8588 23.1524C40.5897 23.0819 40.2951 22.9303 40.0981 22.761C39.8444 22.5429 39.7182 22.3767 39.5768 22.0746C39.405 21.7075 39.4071 21.7477 39.4071 18.7978C39.4071 15.7576 39.3988 15.8856 39.6264 15.4245C39.8068 15.059 40.089 14.773 40.4449 14.5948C40.926 14.3539 40.5485 14.3717 45.1874 14.3717H49.3107L49.3183 15.3589L49.3259 16.3462L45.6398 16.3537L41.9537 16.3613L41.8493 16.4328C41.7918 16.4722 41.7149 16.5566 41.6784 16.6203L41.612 16.7361V18.841C41.612 20.9198 41.6128 20.9474 41.6722 21.0613C41.7053 21.1247 41.7875 21.2155 41.8549 21.2631L41.9773 21.3496L45.6512 21.3573L49.3252 21.3649V22.2872V23.2094L45.1946 23.2077C41.2579 23.2061 41.0545 23.2035 40.8588 23.1523V23.1523L40.8588 23.1524ZM64.4921 23.1646C64.2142 23.1049 63.8715 22.9236 63.6462 22.7172C63.3537 22.4492 63.1682 22.1485 63.0601 21.7672C63.0103 21.5916 63.0071 21.4114 63.0071 18.7978C63.0071 15.689 62.9952 15.8821 63.214 15.425C63.3595 15.1209 63.7511 14.73 64.0596 14.581C64.5222 14.3576 64.1359 14.3753 68.7668 14.3647L72.9117 14.3552V15.351V16.3468H69.263C65.7395 16.3468 65.6106 16.3485 65.5073 16.4014C65.3752 16.4689 65.3145 16.5344 65.2573 16.6713C65.2188 16.7635 65.2129 17.0507 65.2129 18.8554C65.2129 20.5354 65.2204 20.9512 65.2519 21.0266C65.3034 21.1498 65.4731 21.2958 65.6086 21.3335C65.6819 21.3538 66.8935 21.3637 69.3146 21.3639L72.9117 21.364V22.2867V23.2094L68.7956 23.2073C65.3883 23.2052 64.6472 23.1981 64.4921 23.1648V23.1648L64.4921 23.1646ZM73.9212 22.1209L73.9215 21.0613L73.9918 20.9102C74.1274 20.6191 74.2367 20.5363 75.6771 19.634C76.4238 19.1661 77.0348 18.7769 77.0348 18.7689C77.0348 18.7549 75.2385 17.5982 74.6 17.2011C74.2197 16.9645 74.1164 16.8717 74.0214 16.6811L73.9498 16.5374V15.4473V14.3573H75.0599H76.17L76.1713 15.0277L76.1726 15.6981L77.7341 16.6774C78.5929 17.216 79.3158 17.6567 79.3404 17.6567C79.365 17.6567 80.0951 17.2096 80.9627 16.663L82.5402 15.6692L82.5414 15.0132L82.5427 14.3573H83.6528H84.763V15.3942C84.763 16.385 84.76 16.4386 84.7009 16.5981C84.5932 16.8874 84.4332 17.0097 82.9752 17.918C82.2537 18.3676 81.6644 18.7462 81.6658 18.7594C81.6683 18.7819 83.8095 20.1695 84.2151 20.4114C84.4436 20.5477 84.5964 20.7016 84.6742 20.8738C84.7298 20.9968 84.7329 21.0603 84.7335 22.0921L84.7339 23.1806L84.1644 23.1805C83.8512 23.1805 83.3517 23.172 83.0543 23.1615L82.5137 23.1426V22.4878V21.8329L80.9461 20.8488C80.084 20.3075 79.3619 19.8646 79.3415 19.8646C79.3212 19.8646 78.5929 20.3155 77.7231 20.8666L76.1418 21.8686L76.1415 22.5246L76.1412 23.1806H75.0311H73.9209L73.9212 22.1209L73.9212 22.1209ZM43.7024 18.8554V17.9616H46.5138H49.3252V18.8554V19.7493H46.5138H43.7024V18.8554ZM67.289 18.8554V17.9616H70.1004H72.9117V18.8554V19.7493H70.1004H67.289V18.8554Z" fill="#293064"/>
<path d="M0.00404249 23.4203L19.1837 0.432068H27.6905L27.6172 0.511366L8.29402 23.4708H4.12744C0.162043 23.4708 -0.0370576 23.4683 0.00404249 23.4203Z" fill="#DF343D"/>
</svg>
