<svg width="30" height="31" viewBox="0 0 30 31" fill="none" xmlns="http://www.w3.org/2000/svg">
<circle cx="15" cy="15.7539" r="14.5911" stroke="#FF7C40" stroke-width="0.817717"/>
<path d="M10.858 10.6151V18.7539H9.45498V10.6151H10.858ZM14.1784 14.1758V15.2882H10.5003V14.1758H14.1784ZM14.6424 10.6151V11.733H10.5003V10.6151H14.6424ZM15.6318 10.1679H16.9789V17.4626L16.8504 18.7539H15.6318V10.1679ZM20.9254 15.6739V15.7913C20.9254 16.2385 20.8751 16.6503 20.7745 17.0266C20.6776 17.3993 20.5285 17.7235 20.3273 17.9993C20.1298 18.275 19.8838 18.4893 19.5894 18.6421C19.2987 18.7912 18.9615 18.8657 18.5776 18.8657C18.2012 18.8657 17.8733 18.7949 17.5938 18.6533C17.3143 18.5117 17.0796 18.3104 16.8895 18.0496C16.7032 17.7887 16.5522 17.4776 16.4367 17.1161C16.3212 16.7546 16.2392 16.3559 16.1908 15.9198V15.5453C16.2392 15.1056 16.3212 14.7068 16.4367 14.3491C16.5522 13.9876 16.7032 13.6764 16.8895 13.4156C17.0796 13.151 17.3125 12.9479 17.5882 12.8063C17.8677 12.6647 18.1938 12.5939 18.5665 12.5939C18.954 12.5939 19.295 12.6684 19.5894 12.8175C19.8875 12.9665 20.1353 13.1789 20.3329 13.4547C20.5304 13.7268 20.6776 14.051 20.7745 14.4274C20.8751 14.8037 20.9254 15.2192 20.9254 15.6739ZM19.5782 15.7913V15.6739C19.5782 15.4019 19.5559 15.1466 19.5111 14.9081C19.4664 14.6659 19.3919 14.4534 19.2875 14.2708C19.1869 14.0882 19.049 13.9448 18.8739 13.8404C18.7025 13.7323 18.4882 13.6783 18.2311 13.6783C17.9926 13.6783 17.7876 13.7193 17.6162 13.8013C17.4448 13.8833 17.3013 13.9951 17.1858 14.1367C17.0702 14.2783 16.9789 14.4423 16.9119 14.6286C16.8485 14.8149 16.8056 15.0162 16.7833 15.2323V16.2441C16.8168 16.5236 16.8876 16.7807 16.9957 17.0155C17.1075 17.2465 17.264 17.4328 17.4653 17.5744C17.6665 17.7123 17.9255 17.7813 18.2422 17.7813C18.4919 17.7813 18.7025 17.731 18.8739 17.6303C19.0453 17.5297 19.1813 17.39 19.282 17.2111C19.3863 17.0285 19.4608 16.8161 19.5056 16.5739C19.554 16.3316 19.5782 16.0708 19.5782 15.7913Z" fill="#FF7C40"/>
</svg>
