<svg width="30" height="31" viewBox="0 0 30 31" fill="none" xmlns="http://www.w3.org/2000/svg">
<circle cx="15" cy="15.7539" r="14.5911" stroke="#FF7C40" stroke-width="0.817717"/>
<path d="M12.4565 10.6151V18.7539H11.0535V10.6151H12.4565ZM17.9402 12.7057H19.1644V18.5862C19.1644 19.1303 19.0488 19.5924 18.8178 19.9725C18.5867 20.3526 18.2644 20.6414 17.8507 20.8389C17.4371 21.0402 16.9582 21.1408 16.4141 21.1408C16.1831 21.1408 15.926 21.1072 15.6427 21.0402C15.3632 20.9731 15.0912 20.865 14.8266 20.7159C14.5658 20.5706 14.3478 20.3787 14.1726 20.1402L14.8043 19.3464C15.0204 19.6036 15.2589 19.7918 15.5198 19.911C15.7806 20.0303 16.0545 20.0899 16.3415 20.0899C16.6508 20.0899 16.9135 20.0321 17.1296 19.9166C17.3495 19.8048 17.5191 19.639 17.6383 19.4191C17.7576 19.1992 17.8172 18.9309 17.8172 18.6142V14.0752L17.9402 12.7057ZM13.8316 15.7969V15.6795C13.8316 15.2211 13.8875 14.8037 13.9993 14.4274C14.1111 14.0472 14.2714 13.7212 14.4801 13.4491C14.6887 13.1734 14.9421 12.9628 15.2403 12.8175C15.5384 12.6684 15.8757 12.5939 16.252 12.5939C16.6433 12.5939 16.9769 12.6647 17.2526 12.8063C17.5321 12.9479 17.765 13.151 17.9514 13.4156C18.1377 13.6764 18.283 13.9895 18.3874 14.3547C18.4954 14.7162 18.5756 15.1186 18.6277 15.5621V15.9366C18.5793 16.3689 18.4973 16.7639 18.3818 17.1217C18.2663 17.4794 18.1135 17.7887 17.9234 18.0496C17.7334 18.3104 17.4986 18.5117 17.2191 18.6533C16.9433 18.7949 16.6172 18.8657 16.2409 18.8657C15.8719 18.8657 15.5384 18.7893 15.2403 18.6365C14.9459 18.4837 14.6925 18.2695 14.4801 17.9937C14.2714 17.7179 14.1111 17.3937 13.9993 17.021C13.8875 16.6447 13.8316 16.2366 13.8316 15.7969ZM15.1788 15.6795V15.7969C15.1788 16.0726 15.2049 16.3298 15.257 16.5683C15.3129 16.8068 15.3968 17.0173 15.5086 17.1999C15.6241 17.3788 15.7694 17.5204 15.9446 17.6248C16.1235 17.7254 16.334 17.7757 16.5762 17.7757C16.893 17.7757 17.152 17.7086 17.3532 17.5744C17.5582 17.4403 17.7147 17.2595 17.8228 17.0322C17.9346 16.8012 18.0128 16.544 18.0576 16.2608V15.2491C18.0352 15.0292 17.9886 14.8242 17.9178 14.6342C17.8507 14.4441 17.7594 14.2783 17.6439 14.1367C17.5284 13.9913 17.3831 13.8795 17.2079 13.8013C17.0328 13.7193 16.8259 13.6783 16.5874 13.6783C16.3452 13.6783 16.1347 13.7305 15.9558 13.8348C15.7769 13.9392 15.6297 14.0826 15.5142 14.2652C15.4024 14.4478 15.3185 14.6603 15.2626 14.9025C15.2067 15.1447 15.1788 15.4037 15.1788 15.6795Z" fill="#FF7C40"/>
</svg>
