<svg width="21" height="22" viewBox="0 0 21 22" fill="none" xmlns="http://www.w3.org/2000/svg">
<path d="M18.756 0.37207H1.60868C0.822963 0.37207 0.18457 1.05176 0.18457 1.88613V19.858C0.18457 20.6924 0.822963 21.3721 1.60868 21.3721H18.756C19.5417 21.3721 20.1846 20.6924 20.1846 19.858V1.88613C20.1846 1.05176 19.5417 0.37207 18.756 0.37207ZM6.22921 18.3721H3.26493V8.35019H6.23368V18.3721H6.22921ZM4.74707 6.98145C3.79618 6.98145 3.02832 6.17051 3.02832 5.17676C3.02832 4.18301 3.79618 3.37207 4.74707 3.37207C5.6935 3.37207 6.46582 4.18301 6.46582 5.17676C6.46582 6.1752 5.69796 6.98145 4.74707 6.98145ZM17.3408 18.3721H14.3765V13.4971C14.3765 12.3346 14.3542 10.8393 12.8364 10.8393C11.2917 10.8393 11.0551 12.1049 11.0551 13.4127V18.3721H8.09082V8.35019H10.9346V9.71894H10.9747C11.3721 8.93145 12.3408 8.10176 13.7828 8.10176C16.7828 8.10176 17.3408 10.1783 17.3408 12.8783V18.3721Z" fill="#1074AF"/>
</svg>
