<svg width="54" height="41" viewBox="0 0 54 41" fill="none" xmlns="http://www.w3.org/2000/svg">
<path fill-rule="evenodd" clip-rule="evenodd" d="M41.648 24.8375L29.2961 12.4197L41.648 0.00195312L54 12.4197L41.648 24.8375ZM30.2721 41.002H25.0241V28.9C25.0241 27.6249 24.8223 26.6593 24.4316 26.0092C24.0409 25.3591 23.428 25.0338 22.5929 25.0338C21.7847 25.0338 21.0436 25.2236 20.3701 25.6029C19.6961 25.9822 18.8342 26.5544 17.7834 27.3089V27.8371V41.002H12.5387V28.9C12.5387 27.6249 12.3336 26.6593 11.9429 26.0092C11.5522 25.3591 10.9393 25.0338 10.1043 25.0338C9.29555 25.0338 8.55443 25.2236 7.88092 25.6029C7.20942 25.9822 6.33207 26.5644 5.25444 27.3499V41.002H0V21.2954H3.43569L4.32443 23.4082C5.53678 22.5432 6.78987 21.8646 8.08322 21.3769C9.37657 20.8892 10.5079 20.6453 11.4781 20.6453C14.1454 20.6453 15.9507 21.5393 16.8941 23.3272C18.1092 22.4877 19.3456 21.8306 20.6122 21.3564C21.8787 20.8827 22.9966 20.6453 23.9668 20.6453C26.2031 20.6453 27.8131 21.2485 28.7968 22.4538C29.78 23.659 30.2721 25.4535 30.2721 27.8371V41.002Z" fill="#06255B"/>
</svg>
