<svg width="84" height="27" viewBox="0 0 84 27" fill="none" xmlns="http://www.w3.org/2000/svg">
<path d="M5.20283 13.8629C5.20283 13.8385 5.20283 13.8385 5.20283 13.8142C5.20283 13.6198 5.05696 13.4739 4.86246 13.4739C4.83815 13.4739 4.83815 13.4739 4.81383 13.4739H1.65324C0.753681 13.4739 0 12.7446 0 11.8209V7.29927C0 6.39982 0.729369 5.64622 1.65324 5.64622H4.81383H4.86246C5.05696 5.64622 5.20283 5.50036 5.20283 5.30589V5.28158V0.808613C5.20283 0.614137 5.3487 0.468279 5.5432 0.468279H7.46387C7.65837 0.468279 7.80425 0.614137 7.80425 0.808613V6.6186C7.80425 7.51806 7.07488 8.27165 6.15101 8.27165H2.99041H2.94179C2.74729 8.27165 2.60142 8.41751 2.60142 8.61199V8.66061V10.4838C2.60142 10.5081 2.60142 10.5081 2.60142 10.5324C2.60142 10.7269 2.74729 10.8728 2.94179 10.8728C2.9661 10.8728 2.9661 10.8728 2.99041 10.8728H6.17532C7.07488 10.8728 7.82856 11.6021 7.82856 12.5258V20.9126C7.82856 20.9369 7.82856 20.9369 7.82856 20.9613C7.82856 21.1557 7.97443 21.3016 8.16893 21.3016C8.19324 21.3016 8.19324 21.3016 8.21756 21.3016H15.2438C15.2681 21.3016 15.2681 21.3016 15.2924 21.3016C15.4869 21.3016 15.6328 21.1557 15.6328 20.9613C15.6328 20.9369 15.6328 20.9369 15.6328 20.9126V16.4397C15.6328 16.2452 15.7787 16.0993 15.9732 16.0993H17.8938C18.0883 16.0993 18.2342 16.2452 18.2342 16.4397V22.2497C18.2342 23.1491 17.5049 23.9027 16.581 23.9027H6.85607C5.95651 23.9027 5.20283 23.1734 5.20283 22.2497V13.8629ZM20.8356 13.8629C20.8356 13.8385 20.8356 13.8385 20.8356 13.8142C20.8356 13.6198 20.6898 13.4739 20.4953 13.4739C20.471 13.4739 20.471 13.4739 20.4466 13.4739H17.286C16.3865 13.4739 15.6328 12.7446 15.6328 11.8209V3.43405C15.6328 3.40974 15.6328 3.40974 15.6328 3.38543C15.6328 3.19095 15.4869 3.04509 15.2924 3.04509C15.2681 3.04509 15.2681 3.04509 15.2438 3.04509H13.4204C13.3961 3.04509 13.3961 3.04509 13.3718 3.04509C13.1773 3.04509 13.0314 3.19095 13.0314 3.38543C13.0314 3.40974 13.0314 3.40974 13.0314 3.43405V18.3115C13.0314 18.506 12.8855 18.6518 12.691 18.6518H10.7703C10.5758 18.6518 10.43 18.506 10.43 18.3115V2.09702C10.43 1.19757 11.1593 0.44397 12.0832 0.44397H16.6053C17.5049 0.44397 18.2585 1.17326 18.2585 2.09702V10.4838C18.2585 10.5081 18.2585 10.5081 18.2585 10.5324C18.2585 10.7269 18.4044 10.8728 18.5989 10.8728C18.6232 10.8728 18.6232 10.8728 18.6475 10.8728H21.8081C22.7077 10.8728 23.4614 11.6021 23.4614 12.5258V23.5381C23.4614 23.7325 23.3155 23.8784 23.121 23.8784H21.2003C21.0058 23.8784 20.8599 23.7325 20.8599 23.5381V13.8629H20.8356Z" fill="#43B02A"/>
<path d="M37.1988 24.4862C37.1988 25.5072 36.2992 26.4553 34.7433 26.4553H34.2813C32.7497 26.4553 31.8501 25.6774 31.7285 24.8508L31.7042 24.705L33.3575 24.5591L33.4304 24.6564C33.5276 24.8508 33.7708 24.9724 34.1841 24.9724H34.5488C35.0107 24.9724 35.3997 24.7293 35.3997 24.2188V23.6111C35.0593 23.8298 34.6703 23.9271 34.2813 23.9271H33.5763C32.3607 23.9271 31.7042 22.9061 31.7042 21.8365V18.9922C31.7042 17.8983 32.3607 16.9016 33.5763 16.9016H34.1841C34.7676 16.9016 35.3268 17.1447 35.7887 17.558L35.9832 16.9745H37.1988V24.4862ZM35.3997 22.0066V18.8464C35.1809 18.6276 34.8891 18.4817 34.5731 18.4817H34.1841C33.8194 18.4817 33.479 18.7248 33.479 19.2353V21.6177C33.479 22.1282 33.7951 22.3713 34.1598 22.3713H34.5245C34.8405 22.3713 35.1809 22.2254 35.3997 22.0066Z" fill="#53565A"/>
<path d="M41.9128 18.555H41.0619C40.6242 18.555 40.1623 18.7252 39.8706 19.017V23.8557H38.0958V16.9988H39.3114L39.5059 17.6554C40.0407 17.1934 40.6729 16.9259 41.3293 16.9259H41.9128V18.555Z" fill="#53565A"/>
<path d="M49.6952 2.97217H48.6255C46.4374 2.97217 45.1975 4.35781 45.1975 5.86501V10.0706C45.1975 11.5778 46.4617 12.9634 48.6255 12.9634H49.6952C51.7861 12.9634 52.9774 11.5778 52.9774 10.0706V5.86501C52.9774 4.35781 51.7861 2.97217 49.6952 2.97217ZM50.4489 9.6573C50.4489 10.3866 49.9627 10.7269 49.3792 10.7269H48.7714C48.1879 10.7269 47.7016 10.3866 47.7016 9.6573V6.25396C47.7016 5.54898 48.1879 5.18434 48.7714 5.18434H49.3792C49.9627 5.18434 50.4489 5.54898 50.4489 6.25396V9.6573ZM41.4534 2.97217H40.7726C40.0919 2.97217 39.4355 3.19095 38.852 3.53129V0.44397H36.3235V12.8419H38.852V5.74346C39.1923 5.40312 39.6543 5.18434 40.1405 5.18434H40.5052C41.0644 5.18434 41.502 5.50036 41.502 6.22965V12.8419H44.0305V5.8407C44.0305 4.3335 43.1309 2.97217 41.4534 2.97217ZM34.2326 0.44397H32.5064L31.7528 3.0694H30.6344V5.30589H31.7041V12.8662H34.2326V5.30589H35.5698V3.0694H34.2326V0.44397ZM79.3562 5.91363V5.69484C79.3562 5.35451 79.7209 5.20865 80.0613 5.20865H80.5962C81.0095 5.20865 81.3985 5.47605 81.3985 6.01086V6.18103H83.7568V5.91363C83.7568 4.38212 82.687 2.99648 80.742 2.99648H79.7452C77.8246 2.99648 76.7305 4.21195 76.7305 5.54898V6.05948C76.7305 8.92801 81.5687 9.00094 81.5687 9.94902V10.1435C81.5687 10.5324 81.1554 10.7269 80.6205 10.7269H80.0127C79.4535 10.7269 78.9916 10.4595 78.9916 9.92471V9.73023H76.4874V10.1192C76.4874 11.5778 77.6301 12.9634 79.7209 12.9634H80.7907C82.7843 12.9634 83.9999 11.675 83.9999 10.3137V9.87609C84.0242 6.78877 79.3562 6.91032 79.3562 5.91363ZM72.4759 2.97217H71.6249C69.5341 2.97217 68.3428 4.43074 68.3428 6.03517V6.27827H70.8713V6.15672C70.8713 5.52467 71.2846 5.20865 71.7708 5.20865H72.2571C72.7676 5.20865 73.2052 5.57329 73.2052 6.27827V6.8617L71.2846 7.08048C69.607 7.27496 67.9295 8.07718 67.9295 9.73023V10.4838C67.9295 11.7722 68.902 12.9877 70.6768 12.9877H71.4791C72.2327 12.9877 73.035 12.6474 73.7158 12.0639L73.9832 12.8662H75.7094V6.08379C75.7337 4.43074 74.5424 2.97217 72.4759 2.97217ZM73.2295 10.1678C72.8406 10.5324 72.2327 10.7269 71.6493 10.7269H71.1873C70.8226 10.7269 70.4823 10.5081 70.4823 10.0949V9.80316C70.4823 9.34128 71.0414 9.00094 71.6736 8.92801L73.2295 8.70923V10.1678ZM64.4528 2.97217H63.7721C62.8482 2.97217 61.973 3.33681 61.2679 3.96886C60.8546 3.36112 60.1738 2.97217 59.2743 2.97217H58.5935C57.694 2.97217 56.8674 3.33681 56.138 3.92024L55.8706 3.0694H54.1444V12.8419H56.6486V5.74346C56.9889 5.40312 57.4509 5.18434 57.9371 5.18434H58.3018C58.861 5.18434 59.2986 5.50036 59.2986 6.22965V12.8419H61.8271V5.71915C62.1431 5.40312 62.6294 5.18434 63.1156 5.18434H63.4803C64.0152 5.18434 64.4771 5.50036 64.4771 6.22965V12.8419H67.0056V5.8407C67.0299 4.3335 66.1304 2.97217 64.4528 2.97217Z" fill="#53565A"/>
<path d="M44.5147 16.999V21.6674C44.5147 22.1781 44.8308 22.3969 45.2198 22.3969H45.4872C45.8276 22.3969 46.1679 22.251 46.3868 22.0322V16.999H48.1616V23.8801H46.9459L46.7514 23.2966C46.2652 23.7099 45.6574 23.9531 45.0496 23.9531H44.5633C43.372 23.9531 42.7642 23.0048 42.7642 21.9106V16.999H44.5147Z" fill="#53565A"/>
<path d="M50.2783 16.9988L50.4485 17.558C50.9104 17.169 51.421 16.9259 52.0045 16.9259H52.6852C53.9008 16.9259 54.5573 17.9226 54.5573 19.0165V21.8851C54.5573 22.979 53.9008 23.9757 52.6852 23.9757H52.0288C51.6155 23.9757 51.2022 23.8541 50.8375 23.6353V26.4796H49.0627V16.9988H50.2783ZM50.8375 18.8464V22.0066C51.0563 22.2254 51.3724 22.3713 51.6884 22.3713H52.0531C52.4421 22.3713 52.7582 22.1282 52.7582 21.6177V19.2353C52.7582 18.7248 52.4421 18.4817 52.0531 18.4817H51.6884C51.3967 18.4817 51.0563 18.6276 50.8375 18.8464Z" fill="#53565A"/>
<path d="M56.5737 16.9988L56.7439 17.558C57.2059 17.169 57.7164 16.9259 58.2999 16.9259H58.9807C60.1963 16.9259 60.8527 17.9226 60.8527 19.0165V21.8851C60.8527 22.979 60.1963 23.9757 58.9807 23.9757H58.3485C57.9352 23.9757 57.5219 23.8541 57.1572 23.6353V26.4796H55.3824V16.9988H56.5737ZM57.1329 18.8464V22.0066C57.3517 22.2254 57.6678 22.3713 57.9839 22.3713H58.3485C58.7375 22.3713 59.0536 22.1282 59.0536 21.6177V19.2353C59.0536 18.7248 58.7375 18.4817 58.3485 18.4817H57.9839C57.6921 18.4817 57.3517 18.6276 57.1329 18.8464Z" fill="#53565A"/>
<path d="M63.4312 21.0351V21.643C63.4312 22.1536 63.7716 22.3968 64.1849 22.3968H64.5982C65.0115 22.3968 65.3519 22.1779 65.3519 21.6916V21.643H67.1267V21.9834C67.1267 23.0047 66.3001 23.9529 64.817 23.9529H64.0633C62.5317 23.9529 61.6564 22.9803 61.6564 21.9105V18.9684C61.6564 17.8985 62.5317 16.9259 64.0633 16.9259H64.817C66.2758 16.9259 67.1267 17.8985 67.1267 18.9684V21.0351H63.4312ZM63.4312 19.6735H65.3519V19.2358C65.3519 18.7495 65.0115 18.4821 64.5982 18.4821H64.1849C63.7716 18.4821 63.4312 18.7252 63.4312 19.2358V19.6735Z" fill="#53565A"/>
</svg>
