<svg width="86" height="28" viewBox="0 0 86 28" fill="none" xmlns="http://www.w3.org/2000/svg">
<path d="M0 2.71103V4.90591H1.34132H2.68264V3.68653V2.46715H5.48721C7.02363 2.46715 8.29178 2.51593 8.29178 2.58909C8.29178 2.66225 6.4871 5.39366 4.26783 8.6616C0.51214 14.222 0.243876 14.6853 0.243876 15.734V16.8558H5.97496H11.706V14.539V12.2222H10.4867H9.26729V13.4416V14.661H6.31639H3.38988L7.53577 8.51528C11.1207 3.22317 11.706 2.22328 11.706 1.44287V0.516146H5.85302H0V2.71103Z" fill="#008687"/>
<path d="M15.1203 1.46726C15.1203 2.44277 15.1203 2.44277 16.169 2.51593L17.1933 2.58909L17.2665 8.61283L17.3152 14.661H16.0958H14.8521L14.9252 15.6852L14.9984 16.7339L20.9246 16.8071L26.8264 16.8558V14.4171V11.9783H25.607H24.3876V13.3196V14.661H22.1927H19.9979V8.56405V2.46715H20.9734H21.9489V1.49165V0.516146H18.5346H15.1203V1.46726Z" fill="#008687"/>
<path d="M0.292651 22.2214C0.341426 23.0262 0.463364 23.3433 0.804791 23.392C1.09744 23.4652 1.21938 23.3189 1.21938 22.8555C1.21938 22.319 1.31693 22.2214 1.9754 22.2214C2.80457 22.2214 2.85335 22.0751 1.1706 24.587C0.536527 25.5625 0 26.5624 0 26.8551C0 27.3184 0.146326 27.3428 2.43876 27.3428H4.87752V26.2454C4.87752 25.2699 4.82874 25.148 4.3166 25.148C3.87763 25.148 3.75569 25.2699 3.75569 25.6845C3.78008 26.1478 3.63375 26.2698 2.9509 26.3186C1.92662 26.4161 1.9754 26.3186 3.65814 23.8066C4.34099 22.7824 4.87752 21.7825 4.82874 21.563C4.77997 21.2703 4.3166 21.1972 2.48753 21.1484L0.219488 21.124L0.292651 22.2214Z" fill="black"/>
<path d="M46.3841 21.4652C46.311 21.6603 46.4329 21.9286 46.6524 22.0993C47.2377 22.5139 47.2621 26.3671 46.6768 26.3671C46.4573 26.3671 46.3353 26.5379 46.3841 26.7817C46.4329 27.1232 46.7499 27.2451 47.7498 27.2939C48.896 27.367 49.018 27.3183 49.018 26.8793C49.018 26.5866 48.9204 26.3671 48.7985 26.3671C48.6766 26.3671 48.5302 26.1477 48.4571 25.8794C48.262 25.1722 48.5058 25.2697 49.4326 26.3671C50.0667 27.0988 50.4569 27.3427 50.9934 27.3427C51.5299 27.3427 51.7006 27.2207 51.7006 26.8549C51.7006 26.5866 51.5543 26.3671 51.3592 26.3671C51.1641 26.3671 50.7739 26.0501 50.5056 25.6599L50.0179 24.9771L50.5544 24.4405C50.8714 24.1723 51.2616 23.9284 51.408 23.9284C51.5787 23.9284 51.7006 23.7089 51.7006 23.4406C51.7006 23.0017 51.5299 22.9529 50.2618 22.9529C49.0911 22.9529 48.8229 23.026 48.8717 23.3431C48.896 23.5382 49.0668 23.8064 49.2619 23.9284C49.5057 24.0747 49.457 24.1723 49.0668 24.3918C48.579 24.66 48.5546 24.6112 48.4815 22.9285L48.4083 21.1726L47.4572 21.1482C46.8719 21.1238 46.4817 21.2458 46.3841 21.4652Z" fill="black"/>
<path d="M54.3836 21.6603C54.3836 22.0018 54.5299 22.2213 54.7494 22.2213C55.0421 22.2213 55.1152 22.6115 55.1152 24.1723C55.1152 25.7331 55.0421 26.1233 54.7494 26.1233C54.5299 26.1233 54.3836 26.3428 54.3836 26.733V27.3427H56.9443H59.505V25.8794C59.505 24.5869 59.4562 24.4161 59.0416 24.4161C58.6514 24.4161 58.5539 24.6112 58.4807 25.3185C58.4076 26.172 58.3344 26.2452 57.6272 26.3184L56.8224 26.3915V24.3186C56.8224 23.0748 56.9199 22.2213 57.0662 22.2213C57.2126 22.2213 57.3101 21.9774 57.3101 21.6603C57.3101 21.1726 57.1882 21.1238 55.8469 21.1238C54.4812 21.0994 54.3836 21.1482 54.3836 21.6603Z" fill="black"/>
<path d="M60.9698 21.4653C60.9698 22.1238 61.4332 22.3433 61.8722 21.9043C62.3112 21.4653 62.0917 21.002 61.4332 21.002C61.1406 21.002 60.9698 21.1727 60.9698 21.4653Z" fill="black"/>
<path d="M62.7743 21.2701C62.5792 21.6115 63.2865 22.3187 63.6279 22.1236C63.7742 22.0261 63.8962 21.7334 63.8962 21.4652C63.8962 20.953 63.067 20.8067 62.7743 21.2701Z" fill="black"/>
<path d="M65.1136 21.6603C65.1136 22.0017 65.2599 22.2212 65.4794 22.2212C65.7721 22.2212 65.8452 22.6114 65.8452 24.1722C65.8452 25.6842 65.7721 26.172 65.4794 26.2695C65.2843 26.3671 65.1136 26.6109 65.1136 26.8792C65.1136 27.2694 65.3331 27.3182 67.089 27.2938C68.6986 27.2938 69.162 27.1962 69.5278 26.8304C70.1131 26.2451 70.1618 24.2697 69.6009 23.4649C69.2595 22.9772 69.04 22.904 68.1377 23.026L67.0646 23.1479V22.1236V21.1237H66.0891C65.2356 21.0993 65.1136 21.1725 65.1136 21.6603ZM68.6254 24.7331C68.6986 25.0257 68.5767 25.5135 68.3816 25.8305C68.0157 26.3915 67.9914 26.3915 67.528 25.9769C66.9671 25.4647 66.9427 24.8306 67.4304 24.3185C67.8938 23.8551 68.4303 24.0502 68.6254 24.7331Z" fill="black"/>
<path d="M80.0396 21.4652C79.9665 21.6603 80.0884 21.9286 80.3079 22.0993C80.8932 22.5139 80.9176 26.3671 80.3323 26.3671C80.1128 26.3671 79.9909 26.5379 80.0396 26.7817C80.0884 27.1232 80.4055 27.2451 81.4053 27.2939C82.5516 27.367 82.6735 27.3183 82.6735 26.8793C82.6735 26.5866 82.576 26.3671 82.4296 26.3671C82.3077 26.3671 82.1858 26.1233 82.1858 25.8306C82.1858 25.3916 82.3077 25.4404 83.0637 26.3184C83.7222 27.0988 84.1124 27.3427 84.6489 27.3427C85.1854 27.3427 85.3561 27.2207 85.3561 26.8549C85.3561 26.5866 85.2098 26.3671 85.0391 26.3671C84.8684 26.3671 84.4782 26.0501 84.1855 25.6599L83.6734 24.9527L84.2343 24.4405C84.527 24.1723 84.9172 23.9284 85.0635 23.9284C85.2342 23.9284 85.3561 23.7089 85.3561 23.4406C85.3561 23.0017 85.1854 22.9529 84.0148 22.9529C82.8442 22.9529 82.6735 23.0017 82.6735 23.4406C82.6735 23.7089 82.7954 23.9284 82.9418 23.9284C83.1369 23.9284 83.1369 24.0503 82.9174 24.2942C82.3565 24.9771 82.1858 24.66 82.1858 22.8797V21.0994L81.1859 21.1238C80.5518 21.1238 80.1128 21.2458 80.0396 21.4652Z" fill="black"/>
<path d="M28.9719 21.8312C28.5817 22.1238 28.289 22.4897 28.289 22.6604C28.289 22.8311 28.1915 22.953 28.0451 22.953C27.9232 22.953 27.8013 23.1725 27.8013 23.4408C27.8013 23.709 27.9232 23.9285 28.0451 23.9285C28.1915 23.9285 28.289 24.5626 28.289 25.3674C28.289 26.977 28.6061 27.4159 29.6791 27.294C30.1669 27.2452 30.3864 27.0745 30.4351 26.6599C30.4839 26.2941 30.3864 26.1234 30.1425 26.1234C29.8498 26.1234 29.7523 25.8551 29.7523 25.026C29.7523 24.2212 29.8498 23.9285 30.1181 23.9285C30.3132 23.9285 30.4839 23.709 30.4839 23.4408C30.4839 23.1725 30.3376 22.953 30.1425 22.953C29.8986 22.953 29.7523 22.636 29.7035 22.1238L29.6303 21.2947L28.9719 21.8312Z" fill="black"/>
<path d="M5.87853 23.587C4.65915 25.1478 5.61027 27.3427 7.48811 27.3427C8.39045 27.3427 9.51228 26.8061 9.51228 26.3671C9.51228 25.9769 8.58556 25.855 8.07342 26.172C7.7076 26.3915 7.43934 26.4159 7.14669 26.2208C6.21996 25.6355 6.51261 25.3916 8.14658 25.3916C9.02453 25.3916 9.75616 25.2941 9.75616 25.1722C9.75616 24.6112 9.17086 23.3919 8.78066 23.1968C8.53678 23.0504 7.87831 22.9529 7.34179 22.9529C6.58577 22.9529 6.26873 23.0992 5.87853 23.587ZM8.14658 24.2942C8.24413 24.5869 8.07342 24.66 7.39056 24.66C6.65894 24.66 6.56139 24.6112 6.82965 24.2942C7.00036 24.0991 7.3174 23.9284 7.56128 23.9284C7.80515 23.9284 8.04903 24.0991 8.14658 24.2942Z" fill="black"/>
<path d="M9.99957 23.465C9.99957 23.7089 10.1703 23.9284 10.3654 23.9284C10.8775 23.9284 10.8775 26.0745 10.3654 26.2696C10.1703 26.3671 9.99957 26.6354 9.99957 26.8793C9.99957 27.2695 10.1947 27.3427 11.3409 27.3427C12.4871 27.3427 12.6822 27.2695 12.6822 26.8793C12.6822 26.6354 12.5115 26.3428 12.292 26.2696C12.0237 26.172 11.9506 25.855 11.9994 25.2209C12.0481 24.4893 12.1701 24.2942 12.5603 24.2942C12.9992 24.2942 13.048 24.4893 13.1212 25.8062L13.1943 27.3427H14.1455C14.9503 27.3427 15.121 27.2451 15.121 26.8793C15.121 26.6354 14.9503 26.3428 14.7308 26.2696C14.1942 26.0745 14.365 24.3186 14.9259 24.221C15.2673 24.1479 15.3405 24.3918 15.4136 25.6843L15.4868 27.2207L16.5354 27.2939C17.4378 27.367 17.5597 27.3183 17.5597 26.8793C17.5597 26.5866 17.389 26.3671 17.1939 26.3671C16.9013 26.3671 16.8281 26.0501 16.8281 24.9527C16.8281 24.1723 16.7062 23.4162 16.5354 23.2455C16.1696 22.8797 15.2429 22.8553 14.6332 23.1968C14.365 23.3431 14.1211 23.3431 14.0479 23.2211C13.9748 23.0992 13.0236 23.0017 11.9506 23.0017C10.1703 22.9773 9.99957 23.026 9.99957 23.465Z" fill="black"/>
<path d="M18.4124 23.5625C17.5588 24.3916 17.5588 25.9037 18.4124 26.7328C19.1684 27.5132 20.6561 27.562 21.4852 26.8548C21.9974 26.4402 22.0218 26.3426 21.7047 26.1232C21.2414 25.8061 20.8024 25.8061 20.6073 26.1232C20.339 26.5377 19.5342 26.3914 19.266 25.8793C19.0221 25.4159 19.0709 25.3915 20.6073 25.3915C21.4852 25.3915 22.1925 25.294 22.1925 25.172C22.1925 24.6111 21.6072 23.3917 21.217 23.1966C20.3634 22.7333 19.0465 22.904 18.4124 23.5625ZM20.5829 24.2941C20.6804 24.5623 20.5341 24.6599 19.9976 24.6599C19.2903 24.6599 19.0709 24.4404 19.4367 24.099C19.7293 23.8063 20.4366 23.9283 20.5829 24.2941Z" fill="black"/>
<path d="M22.4355 23.465C22.4355 23.7089 22.6062 23.9284 22.8013 23.9284C23.0696 23.9284 23.1671 24.221 23.1671 25.1478C23.1671 26.0745 23.0696 26.3671 22.8013 26.3671C22.6062 26.3671 22.4355 26.5866 22.4355 26.8549C22.4355 27.2939 22.6062 27.3427 23.7768 27.3427C24.923 27.3427 25.1181 27.2695 25.1181 26.8793C25.1181 26.6354 24.9474 26.3428 24.7279 26.2696C24.4597 26.172 24.3865 25.855 24.4353 25.2209C24.484 24.4649 24.606 24.2698 25.0693 24.221C25.5815 24.1479 25.6059 24.221 25.6059 25.7331V27.3427H26.5814C27.3862 27.3427 27.5569 27.2695 27.5569 26.8549C27.5569 26.5866 27.4593 26.3671 27.313 26.3671C27.1911 26.3671 27.0691 25.8794 27.0691 25.2941C27.0691 24.6844 26.9716 23.9284 26.8496 23.6113C26.6302 23.026 26.5082 23.0017 24.5328 23.0017C22.6306 22.9773 22.4355 23.026 22.4355 23.465Z" fill="black"/>
<path d="M30.7276 23.4406C30.7276 23.7089 30.8252 23.9284 30.9471 23.9284C31.0934 23.9284 31.4349 24.6844 31.7275 25.6355C32.2397 27.1963 32.3372 27.3427 32.9469 27.3427C33.5322 27.3427 33.6298 27.2207 33.898 26.0989C34.2394 24.7088 34.3858 24.7332 34.7516 26.1964C34.9955 27.0988 35.093 27.2207 35.7027 27.2207C36.3612 27.2207 36.4343 27.0988 36.8977 25.5624C37.1903 24.5869 37.5074 23.9284 37.7025 23.9284C37.8976 23.9284 38.0439 23.7089 38.0439 23.4406C38.0439 23.026 37.8732 22.9529 36.9465 22.9529C36.0197 22.9529 35.849 23.026 35.849 23.4162C35.849 23.6845 35.9466 23.9284 36.0685 23.9772C36.3612 24.0747 36.1173 25.3916 35.8246 25.3916C35.7027 25.3916 35.6052 25.2453 35.6052 25.0746C35.6052 24.9283 35.4832 24.3674 35.3369 23.8552C35.1174 23.0504 34.9955 22.9285 34.4589 23.0017C33.9224 23.0504 33.7517 23.2943 33.4103 24.2942C33.0201 25.416 32.9713 25.4648 32.825 24.9039C32.7274 24.5625 32.7762 23.9772 32.8981 23.6113L33.1664 22.9529H31.947C30.8983 22.9529 30.7276 23.026 30.7276 23.4406Z" fill="black"/>
<path d="M38.7756 23.4406C37.3123 24.9039 38.2147 27.3427 40.2145 27.3427C40.7998 27.3427 41.3851 27.1476 41.824 26.8061L42.5069 26.2696L41.9216 26.0745C41.5558 25.9282 41.1656 25.9526 40.7998 26.1477C40.1657 26.4891 39.5072 26.294 39.5072 25.7575C39.5072 25.4648 39.8243 25.3916 40.9949 25.3916H42.5069L42.3362 24.5869C42.263 24.1723 41.946 23.6113 41.6777 23.3675C40.9705 22.7822 39.3853 22.8309 38.7756 23.4406ZM40.9217 24.343C40.9705 24.5625 40.751 24.66 40.2632 24.66C39.5316 24.66 39.3121 24.4405 39.6779 24.0747C39.9462 23.8308 40.7998 24.0016 40.9217 24.343Z" fill="black"/>
<path d="M42.8501 23.4406C42.9233 23.7089 43.0696 23.9284 43.1915 23.9284C43.3135 23.9284 43.411 24.4649 43.411 25.1478C43.411 26.0257 43.3135 26.3671 43.0696 26.3671C42.8501 26.3671 42.7769 26.5379 42.8501 26.8549C42.972 27.2695 43.1915 27.3427 44.289 27.3427C45.4352 27.3427 45.6059 27.2939 45.6059 26.8549C45.6059 26.5866 45.4352 26.3671 45.2401 26.3671C44.9962 26.3671 44.8743 26.1233 44.8743 25.6599C44.8743 24.8795 45.4108 24.1723 45.9961 24.1723C46.1912 24.1723 46.3375 23.9284 46.3375 23.5626C46.3375 22.8309 45.7522 22.7578 45.0694 23.3675C44.6548 23.7333 44.6304 23.7333 44.6304 23.3675C44.6304 23.0504 44.4109 22.9529 43.6793 22.9529C42.8501 22.9529 42.7526 23.026 42.8501 23.4406Z" fill="black"/>
<path d="M59.9929 23.4407C59.9929 23.7089 60.1148 23.9284 60.2367 23.9284C60.3831 23.9284 60.4806 24.4893 60.4806 25.1722C60.4806 27.1476 60.6513 27.2939 62.9194 27.2939C64.6997 27.3183 64.8704 27.2695 64.8704 26.8305C64.8704 26.5867 64.7728 26.3672 64.6265 26.3672C64.4802 26.3672 64.3826 25.6355 64.3826 24.66V22.9529H63.4071C62.6023 22.9529 62.4316 23.0261 62.4316 23.4407C62.4316 23.7089 62.5536 23.9284 62.6999 23.9284C62.8462 23.9284 62.9194 24.343 62.8706 24.9527C62.8218 25.7087 62.6755 26.0258 62.3828 26.0745C61.9926 26.1477 61.9439 25.9526 61.9439 24.5625V22.9529H60.9684C60.1636 22.9529 59.9929 23.0261 59.9929 23.4407Z" fill="black"/>
<path d="M71.2116 23.4406C70.2849 24.3673 70.2849 25.9282 71.2116 26.8549C71.9189 27.5621 73.4309 27.5133 74.2845 26.7573L74.9673 26.1964L74.4308 26.0013C74.0894 25.9038 73.7236 25.9525 73.5285 26.1233C73.0651 26.5135 71.9433 26.2208 71.9433 25.7574C71.9433 25.4648 72.2847 25.3916 73.4065 25.3916C74.7722 25.3916 74.8698 25.3672 74.8698 24.8063C74.8698 24.4893 74.6503 23.9528 74.3576 23.5869C73.9431 23.0748 73.6504 22.9529 72.7725 22.9529C72.0408 22.9529 71.5531 23.0992 71.2116 23.4406ZM73.3578 24.343C73.4065 24.5625 73.187 24.66 72.6993 24.66C71.9677 24.66 71.7482 24.4405 72.114 24.0747C72.3823 23.8308 73.2358 24.0015 73.3578 24.343Z" fill="black"/>
<path d="M75.9672 23.5626C75.2844 24.221 75.138 25.7087 75.6746 26.3915C76.455 27.4158 78.0889 27.6353 79.1132 26.8305C79.8936 26.2208 79.918 26.0257 79.162 25.6843C78.6742 25.4648 78.5523 25.4892 78.4304 25.7818C78.3328 26.0257 78.0402 26.1233 77.6256 26.0745C77.0159 26.0013 76.9427 25.9038 76.9427 25.1477C76.9427 24.4405 77.0403 24.2698 77.5036 24.221C77.8207 24.1722 78.284 24.3186 78.5279 24.5381C79.2108 25.1477 79.7473 24.8307 79.7473 23.8064V22.9529H78.1621C76.772 22.9529 76.4794 23.026 75.9672 23.5626Z" fill="black"/>
</svg>
